<svg width="96" height="96" viewBox="0 0 96 96" fill="none" xmlns="http://www.w3.org/2000/svg">
<path d="M54.5521 13.0154L54.566 8.1865C54.5673 5.5828 54.4941 3.87408 51.459 3.46803C48.9241 3.46326 44.6854 2.58278 43.8591 5.87382C43.549 7.10891 43.6986 11.4881 43.7032 13.0154C39.7909 12.8953 40.1342 15.6129 40.1471 18.7258C34.3954 21.7096 30.9581 26.5996 29.3164 32.8397C25.373 34.989 25.4409 40.0118 28.7505 42.658C28.8124 43.9417 28.7514 45.2571 28.7512 46.5445L28.7483 86.5441C28.7467 90.3926 28.5768 94.5721 33.4359 95.7978C34.775 96.1354 37.0255 95.9484 38.4675 95.9477L58.8716 95.9492C60.3996 95.9501 63.5862 96.1217 64.9336 95.8124C70.255 94.5908 69.7727 89.7756 69.7717 85.6725L69.7695 42.4612C73.0552 39.6319 72.9615 34.824 68.9704 32.8397C66.7518 26.2657 64.8007 22.1141 58.0638 18.7258C58.0569 15.681 58.5107 12.8503 54.5521 13.0154ZM51.1436 5.99066C51.7179 6.00055 52.109 5.98107 52.166 6.65211C52.3186 8.45037 52.1029 11.1141 52.1191 13.0154H46.093C46.0124 12.1731 46.088 11.311 46.0921 10.4653C46.1185 5.26199 45.4301 5.80728 51.1436 5.99066ZM44.7678 15.4766H55.6637V18.2067H42.581C42.5799 17.298 42.5593 16.3848 42.581 15.4766C43.3118 15.4546 44.0371 15.4575 44.7678 15.4766ZM56.1543 20.6308C56.942 20.7827 57.6001 21.284 58.2625 21.7168C62.0505 24.193 65.1619 27.693 66.2475 32.2345L35.3738 32.237C34.2479 32.2375 33.1097 32.2789 31.986 32.2345C33.4409 27.1042 36.5613 23.6246 41.0791 21.0404C42.4921 20.2322 45.171 20.6267 46.7784 20.6267L56.1543 20.6308ZM65.8676 34.6771C69.3362 34.7273 71.0708 38.0253 68.606 40.2939C67.2135 41.5755 64.8803 41.1499 63.159 41.1494L32.5352 41.1452C27.1686 40.9756 27.8882 35.1462 31.5526 34.7161C32.723 34.5786 33.9818 34.68 35.1627 34.6803L65.8676 34.6771ZM65.2067 43.6003L65.1538 43.6857C63.6489 46.0889 60.9759 47.5493 59.2865 49.7875C58.8613 50.351 59.1097 56.1359 59.1101 57.1222L59.1081 76.1878C59.1076 77.3431 58.7822 78.6489 59.5346 79.6139C61.183 81.7278 63.4276 83.8219 65.2067 85.9525H31.1442V43.6003H65.2067ZM67.3621 45.0766C67.4074 48.177 67.3621 51.285 67.3621 54.386L67.3604 80.9025C67.3585 82.1171 67.2553 83.3866 67.3621 84.5922C66.4182 83.5877 65.4883 82.5712 64.5657 81.5468C63.5631 80.4318 62.412 79.3263 61.5245 78.1221V51.0531C63.4342 49.0426 65.5308 47.1556 67.3621 45.0766ZM67.3621 88.3837C67.3295 93.2202 65.4671 93.5296 61.1674 93.5303L35.8219 93.5283C32.3644 93.4697 31.108 91.8137 31.1442 88.3837H67.3621Z" fill="white"/>
<path d="M50.3324 9.11721C50.1943 8.41073 49.9861 8.01643 49.3005 7.70065C47.5388 7.62208 47.1291 9.64301 48.7009 10.2562C49.5811 10.3065 50.0866 10.0023 50.3324 9.11721Z" fill="white"/>
<path d="M67.3621 88.3837C67.3295 93.2202 65.4671 93.5296 61.1674 93.5303L35.8219 93.5283C32.3644 93.4697 31.108 91.8137 31.1442 88.3837H67.3621Z" fill="white"/>
<path d="M65.2067 43.6003L65.1538 43.6857C63.6489 46.0889 60.9759 47.5493 59.2865 49.7875C58.8613 50.351 59.1097 56.1359 59.1101 57.1222L59.1081 76.1878C59.1076 77.3431 58.7822 78.6489 59.5346 79.6139C61.183 81.7278 63.4276 83.8219 65.2067 85.9525H31.1442V43.6003H65.2067Z" fill="white"/>
<path d="M67.3621 45.0766C67.4074 48.177 67.3621 51.285 67.3621 54.386L67.3604 80.9025C67.3585 82.1171 67.2553 83.3866 67.3621 84.5922C66.4182 83.5877 65.4883 82.5712 64.5657 81.5468C63.5631 80.4318 62.412 79.3263 61.5245 78.1221V51.0531C63.4342 49.0426 65.5308 47.1556 67.3621 45.0766Z" fill="white"/>
<path d="M65.8676 34.6771C69.3362 34.7273 71.0708 38.0253 68.606 40.2939C67.2135 41.5755 64.8803 41.1499 63.159 41.1494L32.5352 41.1452C27.1686 40.9756 27.8882 35.1462 31.5526 34.7161C32.723 34.5786 33.9818 34.68 35.1627 34.6803L65.8676 34.6771Z" fill="white"/>
<path d="M56.1543 20.6308C56.942 20.7827 57.6001 21.284 58.2625 21.7168C62.0505 24.193 65.1619 27.693 66.2475 32.2345L35.3738 32.237C34.2479 32.2375 33.1097 32.2789 31.986 32.2345C33.4409 27.1042 36.5613 23.6246 41.0791 21.0404C42.4921 20.2322 45.171 20.6267 46.7784 20.6267L56.1543 20.6308Z" fill="white"/>
<path d="M44.7678 15.4766H55.6637V18.2067H42.581C42.5799 17.298 42.5593 16.3848 42.581 15.4766C43.3118 15.4546 44.0371 15.4575 44.7678 15.4766Z" fill="white"/>
<path fill-rule="evenodd" clip-rule="evenodd" d="M51.1436 5.99066C51.7179 6.00055 52.109 5.98107 52.166 6.65211C52.3186 8.45037 52.1029 11.1141 52.1191 13.0154H46.093C46.0124 12.1731 46.088 11.311 46.0921 10.4653C46.1185 5.26199 45.4301 5.80728 51.1436 5.99066ZM49.3005 7.70065C49.9861 8.01643 50.1943 8.41073 50.3324 9.11721C50.0866 10.0023 49.5811 10.3065 48.7009 10.2562C47.1291 9.64301 47.5388 7.62208 49.3005 7.70065Z" fill="white"/>
<path d="M54.5521 13.0154L54.566 8.1865C54.5673 5.5828 54.4941 3.87408 51.459 3.46803C48.9241 3.46326 44.6854 2.58278 43.8591 5.87382C43.549 7.10891 43.6986 11.4881 43.7032 13.0154C39.7909 12.8953 40.1342 15.6129 40.1471 18.7258C34.3954 21.7096 30.9581 26.5996 29.3164 32.8397C25.373 34.989 25.4409 40.0118 28.7505 42.658C28.8124 43.9417 28.7514 45.2571 28.7512 46.5445L28.7483 86.5441C28.7467 90.3926 28.5768 94.5721 33.4359 95.7978C34.775 96.1354 37.0255 95.9484 38.4675 95.9477L58.8716 95.9492C60.3996 95.9501 63.5862 96.1217 64.9336 95.8124C70.255 94.5908 69.7727 89.7756 69.7717 85.6725L69.7695 42.4612C73.0552 39.6319 72.9615 34.824 68.9704 32.8397C66.7518 26.2657 64.8007 22.1141 58.0638 18.7258C58.0569 15.681 58.5107 12.8503 54.5521 13.0154ZM51.1436 5.99066C51.7179 6.00055 52.109 5.98107 52.166 6.65211C52.3186 8.45037 52.1029 11.1141 52.1191 13.0154H46.093C46.0124 12.1731 46.088 11.311 46.0921 10.4653C46.1185 5.26199 45.4301 5.80728 51.1436 5.99066ZM44.7678 15.4766H55.6637V18.2067H42.581C42.5799 17.298 42.5593 16.3848 42.581 15.4766C43.3118 15.4546 44.0371 15.4575 44.7678 15.4766ZM56.1543 20.6308C56.942 20.7827 57.6001 21.284 58.2625 21.7168C62.0505 24.193 65.1619 27.693 66.2475 32.2345L35.3738 32.237C34.2479 32.2375 33.1097 32.2789 31.986 32.2345C33.4409 27.1042 36.5613 23.6246 41.0791 21.0404C42.4921 20.2322 45.171 20.6267 46.7784 20.6267L56.1543 20.6308ZM65.8676 34.6771C69.3362 34.7273 71.0708 38.0253 68.606 40.2939C67.2135 41.5755 64.8803 41.1499 63.159 41.1494L32.5352 41.1452C27.1686 40.9756 27.8882 35.1462 31.5526 34.7161C32.723 34.5786 33.9818 34.68 35.1627 34.6803L65.8676 34.6771ZM65.2067 43.6003L65.1538 43.6857C63.6489 46.0889 60.9759 47.5493 59.2865 49.7875C58.8613 50.351 59.1097 56.1359 59.1101 57.1222L59.1081 76.1878C59.1076 77.3431 58.7822 78.6489 59.5346 79.6139C61.183 81.7278 63.4276 83.8219 65.2067 85.9525H31.1442V43.6003H65.2067ZM67.3621 45.0766C67.4074 48.177 67.3621 51.285 67.3621 54.386L67.3604 80.9025C67.3585 82.1171 67.2553 83.3866 67.3621 84.5922C66.4182 83.5877 65.4883 82.5712 64.5657 81.5468C63.5631 80.4318 62.412 79.3263 61.5245 78.1221V51.0531C63.4342 49.0426 65.5308 47.1556 67.3621 45.0766ZM67.3621 88.3837C67.3295 93.2202 65.4671 93.5296 61.1674 93.5303L35.8219 93.5283C32.3644 93.4697 31.108 91.8137 31.1442 88.3837H67.3621Z" fill="black"/>
<path d="M50.3324 9.11721C50.1943 8.41073 49.9861 8.01643 49.3005 7.70065C47.5388 7.62208 47.1291 9.64301 48.7009 10.2562C49.5811 10.3065 50.0866 10.0023 50.3324 9.11721Z" fill="black"/>
<path d="M30.8952 5.64918C31.7599 5.86972 32.3899 4.7168 32.1507 3.96544C31.9009 3.18134 25.7506 0.576899 24.6153 0C23.6979 0.138382 22.9381 0.932692 23.3565 1.88947C23.656 2.5739 29.9883 5.3093 30.8952 5.64918Z" fill="#580EF6"/>
<path d="M37.6736 6.16351C36.8928 5.57697 35.7569 5.20169 34.8508 4.83899C33.9513 4.77675 33.1988 5.72083 33.6606 6.5915C34.0673 7.3587 35.8408 7.99463 36.6576 8.22549C37.9116 8.23805 38.2166 7.11381 37.6736 6.16351Z" fill="#580EF6"/>
<path d="M23.8416 11.3522C24.7335 11.4696 25.7528 11.3568 26.6587 11.3483C27.6914 11.3386 30.4558 11.7891 30.9955 10.6467C31.3257 9.94709 30.895 9.23245 30.2666 8.91901C29.376 8.87091 24.4928 8.82186 23.8309 8.98885C22.5316 9.31703 22.9295 10.8391 23.8416 11.3522Z" fill="#580EF6"/>
<path d="M34.3292 14.7387C35.7872 14.9821 40.4025 12.8399 37.5111 11.3522C35.6482 11.3007 31.3741 13.5316 34.3292 14.7387Z" fill="#580EF6"/>
<path d="M32.0782 14.9219C31.8771 14.1793 31.6853 13.8554 30.8952 13.6667C29.7496 13.8823 25.3077 15.7772 24.1721 16.2852C22.8046 16.8969 22.9752 18.2621 24.2693 18.7431C24.8607 18.7072 30.8323 16.3526 31.4947 15.9466C31.894 15.7018 31.9655 15.3497 32.0782 14.9219Z" fill="#580EF6"/>
</svg><style>@media (prefers-color-scheme: light) { :root { filter: none; } }
@media (prefers-color-scheme: dark) { :root { filter: none; } }
</style></svg>
