<svg width="84" height="84" viewBox="0 0 84 84" fill="none" xmlns="http://www.w3.org/2000/svg">
<mask id="mask0_953_60" style="mask-type:alpha" maskUnits="userSpaceOnUse" x="0" y="0" width="84" height="84">
<circle cx="42" cy="42" r="41.5" fill="#D9D9D9" stroke="#3D3A50"/>
</mask>
<g mask="url(#mask0_953_60)">
<path d="M43.3475 21H38.4509C29.2853 21 20 27.4395 20 40.3274C20 41.2974 20.0449 42.2587 20.1348 43.2114C20.1876 43.6962 20.4269 44.1442 20.8057 44.4674C21.1844 44.7904 21.6751 44.9653 22.181 44.9573H31.5372C36.8962 44.9573 39.3561 44.025 40.8331 42.6731C42.3343 41.2977 43.2034 39.0773 43.408 35.683C43.7551 30.7937 43.7349 25.8866 43.3475 21Z" fill="#FF9900"/>
<path d="M47.3379 44.6417H57.7515C59.0637 44.6701 60.3422 44.2394 61.35 43.4295C62.3577 42.6196 63.0266 41.4853 63.2326 40.2368C64.1497 33.8603 64.2448 27.399 63.5161 21H49.813C50.1874 26.002 50.1986 31.0231 49.8466 36.0266C49.7766 39.0559 48.9137 42.0192 47.3379 44.6417Z" fill="#FFBD14"/>
<path d="M58.513 50.947C58.8122 50.9363 59.109 51.0034 59.3722 51.1412C59.6354 51.2791 59.8551 51.4826 60.0085 51.7303C60.1618 51.9781 60.243 52.2613 60.2437 52.5497C60.2442 52.8381 60.1642 53.1214 60.0119 53.3699C58.1556 56.4394 55.4793 58.974 52.2615 60.7099C49.0435 62.4459 45.4016 63.3198 41.7143 63.2406C32.7439 63.2406 26.6086 59.2185 23.2006 53.2803C23.0651 53.0326 22.9997 52.7549 23.011 52.475C23.0223 52.1952 23.11 51.9233 23.2651 51.6863C23.4202 51.4495 23.6373 51.2561 23.8946 51.1258C24.152 50.9954 24.4404 50.9326 24.7309 50.9436L58.513 50.947Z" fill="#FFAF14"/>
<circle cx="42" cy="42" r="40" stroke="#3D3A50" stroke-width="4"/>
</g>
</svg>
