<svg width="512" height="512" viewBox="0 0 512 512" fill="none" xmlns="http://www.w3.org/2000/svg">
<path d="M146.068 273.403L60.657 231.155C56.2523 229.009 44.3476 225.764 47.9245 218.929C49.7777 215.388 57.2907 214.427 60.7383 213.442L459.064 99.7765C472.009 97.8477 460.187 115.975 458.348 119.463L446.032 142.754C435.792 162.103 426.023 181.746 416.157 201.289L343.19 347.883C340.282 353.783 333.942 370.7 328.053 372.978C324.479 374.361 318.645 370.162 315.606 368.606L267.647 344.445C258.961 340.042 250.361 335.455 241.529 331.346C225.766 347.567 210.398 366.61 195.367 383.674C191.816 387.705 183.551 401.255 177.575 397.938C174.056 395.984 171.598 378.905 170.615 374.83L160.452 333.306C155.579 314.304 149.695 292.429 146.068 273.403ZM396.999 128.473C391.91 128.93 385.037 131.652 379.913 133.026C360.154 138.326 340.64 144.377 320.954 149.915L87.6191 216.98C81.1277 218.82 74.6742 220.873 68.1658 222.636C76.9323 227.614 86.1811 231.92 95.269 236.275C112.644 245.147 132.684 256.077 150.436 263.878C161.791 257.415 173.427 251.367 184.939 245.184L390.841 131.955C392.793 130.902 395.307 129.857 396.999 128.473ZM408.249 134.452C403.589 136.002 399.243 139.483 394.88 141.771C377.478 150.895 360.422 160.586 343.241 170.103L192.777 253.021C180.785 259.616 168.791 266.366 156.573 272.526L174.462 346.182C175.884 352.459 177.57 358.658 179.053 364.916C179.569 359.909 180.551 354.91 181.299 349.929L185.762 320.088C189.76 293.537 184.411 301.235 205.362 285.551L403.125 138.459C404.74 137.245 406.916 135.953 408.249 134.452ZM446.197 119.271C424.236 135.055 403.017 151.805 381.405 168.054L231.332 279.529C223.971 284.989 209.918 294.209 203.903 299.992C214.549 307.178 232.578 314.743 244.36 320.703L285.004 341.357C298.247 347.991 311.595 354.467 324.747 361.277C327.251 355.231 330.467 349.413 333.379 343.555L418.915 171.936C421.759 166.374 446.125 119.944 446.197 119.271ZM198.028 309.08C195.298 331.582 190.766 353.832 187.927 376.292C193.296 370.24 198.681 364.207 203.903 358.027C213.179 347.443 222.829 337.092 231.902 326.345C220.61 320.74 209.242 314.507 198.028 309.08Z" fill="black"/>
<path d="M185.566 458.154C181.79 458.596 177.708 455.763 179.389 451.523C181.196 446.967 198.662 435.052 202.988 431.671L267.987 380.208C271.542 377.429 276.317 372.73 280.316 371.021C286.933 370.62 289.464 376.178 284.107 380.707C272.666 390.378 260.742 399.518 248.977 408.79L195.688 450.756C192.494 453.278 189.217 456.342 185.566 458.154Z" fill="black"/>
<path d="M37.5662 371.154C33.7902 371.596 29.7081 368.763 31.3891 364.523C33.1961 359.967 50.6621 348.052 54.9881 344.671L119.987 293.208C123.542 290.429 128.317 285.73 132.316 284.021C138.933 283.62 141.464 289.178 136.107 293.707C124.666 303.378 112.742 312.518 100.977 321.79L47.6882 363.756C44.4942 366.278 41.2172 369.342 37.5662 371.154Z" fill="black"/>
<path d="M37.5662 501.154C33.7902 501.596 29.7081 498.763 31.3891 494.523C33.1961 489.967 50.6621 478.052 54.9881 474.671L119.987 423.208C123.542 420.429 128.317 415.73 132.316 414.021C138.933 413.62 141.464 419.178 136.107 423.707C124.666 433.378 112.742 442.518 100.977 451.79L47.6882 493.756C44.4942 496.278 41.2172 499.342 37.5662 501.154Z" fill="black"/>
</svg>
